<?xml version="1.0" encoding="UTF-8" standalone="no"?>
<svg
   height="30.667"
   aria-hidden="true"
   viewBox="0 0 23 23.00025"
   version="1.1"
   width="30.666666"
   data-view-component="true"
   class="octicon octicon-mark-github v-align-middle color-fg-default"
   id="svg1"
   sodipodi:docname="github.svg"
   inkscape:version="1.3.2 (091e20ef0f, 2023-11-25)"
   xmlns:inkscape="http://www.inkscape.org/namespaces/inkscape"
   xmlns:sodipodi="http://sodipodi.sourceforge.net/DTD/sodipodi-0.dtd"
   xmlns="http://www.w3.org/2000/svg"
   xmlns:svg="http://www.w3.org/2000/svg">
  <defs
     id="defs1" />
  <sodipodi:namedview
     id="namedview1"
     pagecolor="#505050"
     bordercolor="#eeeeee"
     borderopacity="1"
     inkscape:showpageshadow="0"
     inkscape:pageopacity="0"
     inkscape:pagecheckerboard="0"
     inkscape:deskcolor="#505050"
     inkscape:zoom="11.266327"
     inkscape:cx="1.9971016"
     inkscape:cy="22.190018"
     inkscape:window-width="1707"
     inkscape:window-height="987"
     inkscape:window-x="0"
     inkscape:window-y="0"
     inkscape:window-maximized="1"
     inkscape:current-layer="svg1" />
  <path
     d="M 11.5,0 C 5.146,0 0,5.146 0,11.5 c 0,5.089 3.292,9.387 7.863,10.91 0.575,0.101 0.79,-0.244 0.79,-0.546 0,-0.273 -0.014,-1.178 -0.014,-2.142 C 5.75,20.254 5.003,19.018 4.773,18.372 4.643,18.041 4.083,17.02 3.593,16.747 3.191,16.531 2.616,15.999 3.579,15.985 c 0.906,-0.014 1.553,0.834 1.769,1.179 1.035,1.74 2.688,1.25 3.349,0.948 0.1,-0.747 0.402,-1.25 0.733,-1.538 C 6.871,16.287 4.198,15.295 4.198,10.896 4.198,9.646 4.643,8.611 5.376,7.806 5.261,7.518 4.859,6.339 5.491,4.758 c 0,0 0.963,-0.302 3.163,1.179 0.92,-0.259 1.897,-0.388 2.875,-0.388 0.977,0 1.955,0.13 2.875,0.388 2.2,-1.495 3.162,-1.179 3.162,-1.179 0.633,1.581 0.23,2.76 0.115,3.048 0.733,0.805 1.179,1.825 1.179,3.09 0,4.413 -2.688,5.39 -5.247,5.678 0.417,0.36 0.776,1.05 0.776,2.128 0,1.538 -0.014,2.774 -0.014,3.162 0,0.302 0.216,0.662 0.79,0.547 C 19.709,20.887 23,16.574 23,11.5 23,5.146 17.854,0 11.5,0 Z"
     id="path1" />
</svg>
