<?xml version="1.0" encoding="UTF-8" standalone="no"?>
<!-- Created with Inkscape (http://www.inkscape.org/) -->

<svg
   width="0.95233011in"
   height="0.94342262in"
   viewBox="0 0 24.189233 23.962982"
   version="1.1"
   id="svg135"
   inkscape:version="1.3.2 (091e20ef0f, 2023-11-25)"
   sodipodi:docname="light-mode.svg"
   xmlns:inkscape="http://www.inkscape.org/namespaces/inkscape"
   xmlns:sodipodi="http://sodipodi.sourceforge.net/DTD/sodipodi-0.dtd"
   xmlns="http://www.w3.org/2000/svg"
   xmlns:svg="http://www.w3.org/2000/svg">
  <sodipodi:namedview
     id="namedview137"
     pagecolor="#505050"
     bordercolor="#eeeeee"
     borderopacity="1"
     inkscape:showpageshadow="0"
     inkscape:pageopacity="0"
     inkscape:pagecheckerboard="0"
     inkscape:deskcolor="#505050"
     inkscape:document-units="in"
     showgrid="false"
     inkscape:zoom="3.7302675"
     inkscape:cx="-0.67019322"
     inkscape:cy="52.275071"
     inkscape:window-width="1707"
     inkscape:window-height="987"
     inkscape:window-x="0"
     inkscape:window-y="0"
     inkscape:window-maximized="1"
     inkscape:current-layer="layer1" />
  <defs
     id="defs132">
    <inkscape:path-effect
       effect="copy_rotate"
       starting_point="99.659764,-0.53223908"
       origin="-0.34023649,-0.53223908"
       id="path-effect4"
       is_visible="true"
       lpeversion="1.2"
       lpesatellites=""
       method="normal"
       num_copies="11"
       starting_angle="0"
       rotation_angle="32.727273"
       gap="-0.01"
       copies_to_360="true"
       mirror_copies="false"
       split_items="false"
       link_styles="false" />
    <inkscape:path-effect
       effect="copy_rotate"
       starting_point="0.69946951,-0.53223908"
       origin="-0.34023649,-0.53223908"
       id="path-effect3"
       is_visible="true"
       lpeversion="1.2"
       lpesatellites=""
       method="normal"
       num_copies="9"
       starting_angle="0"
       rotation_angle="40"
       gap="-0.01"
       copies_to_360="true"
       mirror_copies="false"
       split_items="false"
       link_styles="false" />
    <inkscape:path-effect
       effect="copy_rotate"
       starting_point="99.671217,-0.53223908"
       origin="-0.34023649,-0.53223908"
       id="path-effect2"
       is_visible="true"
       lpeversion="1.2"
       lpesatellites=""
       method="normal"
       num_copies="9"
       starting_angle="0"
       rotation_angle="40"
       gap="-0.01"
       copies_to_360="true"
       mirror_copies="false"
       split_items="false"
       link_styles="false" />
    <inkscape:path-effect
       effect="copy_rotate"
       starting_point="14.450152,12.6"
       origin="12.9,12.6"
       id="path-effect1"
       is_visible="true"
       lpeversion="1.2"
       lpesatellites=""
       method="normal"
       num_copies="9"
       starting_angle="0"
       rotation_angle="40"
       gap="-0.01"
       copies_to_360="true"
       mirror_copies="false"
       split_items="false"
       link_styles="false" />
    <inkscape:path-effect
       effect="copy_rotate"
       starting_point="87.782513,0"
       origin="0,0"
       id="path-effect387"
       is_visible="true"
       lpeversion="1.2"
       lpesatellites=""
       method="normal"
       num_copies="9"
       starting_angle="0"
       rotation_angle="40"
       gap="0"
       copies_to_360="true"
       mirror_copies="false"
       split_items="false"
       link_styles="false" />
    <inkscape:path-effect
       effect="copy_rotate"
       starting_point="163.5,63.5"
       origin="63.5,63.5"
       id="path-effect1124"
       is_visible="true"
       lpeversion="1.2"
       lpesatellites=""
       method="normal"
       num_copies="9"
       starting_angle="0"
       rotation_angle="40"
       gap="0"
       copies_to_360="true"
       mirror_copies="false"
       split_items="false"
       link_styles="false" />
    <inkscape:path-effect
       effect="tiling"
       id="path-effect1122"
       is_visible="true"
       lpeversion="1"
       unit="px"
       seed="1;1"
       lpesatellites=""
       num_rows="1"
       num_cols="3"
       gapx="0"
       gapy="0"
       offset="0"
       offset_type="false"
       scale="0"
       rotate="0"
       mirrorrowsx="false"
       mirrorrowsy="false"
       mirrorcolsx="false"
       mirrorcolsy="false"
       mirrortrans="false"
       shrink_interp="false"
       split_items="false"
       link_styles="false"
       interpolate_scalex="false"
       interpolate_scaley="true"
       interpolate_rotatex="false"
       interpolate_rotatey="true"
       random_scale="false"
       random_rotate="false"
       random_gap_y="false"
       random_gap_x="false"
       transformorigin="" />
  </defs>
  <g
     inkscape:label="Layer 1"
     inkscape:groupmode="layer"
     id="layer1"
     transform="translate(12.437931,12.748047)">
    <circle
       style="fill:none;fill-opacity:1;stroke:#ffffff;stroke-width:1.27;stroke-linecap:round;stroke-linejoin:round;stroke-dasharray:none;stroke-opacity:1"
       id="path231"
       cx="-0.34023649"
       cy="-0.53223908"
       r="5.7150111" />
    <path
       style="color:#000000;display:none;fill:#ffffff;stroke-linecap:round;stroke-linejoin:round;-inkscape-stroke:none"
       d="m -0.34960938,-12.748047 c 0.58086932,0 1.04687501,0.461726 1.046875,1.039063 l 0.003906,3.0153679 c -0.001038,0.5793604 -0.46992988,1.0371094 -1.05013968,1.0371094 -0.58086752,0 -1.02993844,-0.4593419 -1.02993834,-1.0390625 l -0.00195,-3.0153688 c 0.00103,-0.581731 0.45104208,-1.037109 1.03124997,-1.037109 z m -7.84997712,2.8639809 c 0.4449717,-0.3733759 1.0987445,-0.3192159 1.4698496,0.1230502 l 1.9412333,2.3073951 c 0.3716105,0.444483 0.3066539,1.096537 -0.1378126,1.4694886 -0.4449704,0.3733745 -1.0842379,0.3101554 -1.4568751,-0.1339364 l -1.9397354,-2.3086531 c -0.3731405,-0.4462939 -0.3211226,-1.0843958 0.1233424,-1.4573463 z m -4.1724995,7.2398047 c 0.100866,-0.5720446 0.636499,-0.9507927 1.205065,-0.8505392 l 2.9702358,0.5197665 c 0.5703783,0.1016271 0.9397509,0.6428827 0.8389985,1.2142778 -0.1008666,0.5720429 -0.6312104,0.93452753 -1.2021237,0.83386 l -2.9698976,-0.5216929 c -0.572714,-0.1020309 -0.94303,-0.6242818 -0.842278,-1.1956751 z m 1.457336,8.2280434 c -0.290435,-0.5030475 -0.123571,-1.1374833 0.376417,-1.4261518 l 2.6094326,-1.5110666 c 0.5022599,-0.2887813 1.1331281,-0.1115835 1.423233,0.3908929 0.2904337,0.503046 0.1171674,1.1216238 -0.3848854,1.411484 l -2.610411,1.5093732 C -10.005273,6.2482872 -10.624648,6.0862543 -10.914752,5.5837795 Z m 6.4052688,5.366289 C -5.0553198,10.751402 -5.3353024,10.158138 -5.1378415,9.615619 l 1.0276462,-2.8348549 c 0.1991283,-0.5440656 0.7963019,-0.8138385 1.3415208,-0.6153951 0.5458369,0.1986684 0.8107213,0.7838999 0.6124451,1.328659 l -1.0294844,2.834187 c -0.1999316,0.546296 -0.7785531,0.820298 -1.3237702,0.621855 z m 8.3561047,-0.0064 C 3.3007849,11.142329 2.7049632,10.867832 2.5075023,10.325312 L 1.4725153,7.4931292 C 1.2753378,6.9483535 1.5593927,6.3578397 2.1046115,6.1593963 2.6504485,5.9607279 3.2295413,6.2387768 3.4278173,6.783536 L 4.4609666,9.6163888 C 4.6589624,10.163389 4.3918378,10.745218 3.8466207,10.943661 Z M 10.24365,5.5675477 C 9.9532153,6.0705953 9.320346,6.2433051 8.8203575,5.9546366 L 6.2070193,4.4503353 C 5.7057975,4.1597562 5.5438211,3.5248094 5.833926,3.022333 6.1243598,2.5192869 6.746697,2.3600511 7.2487497,2.6499115 l 2.612361,1.5059956 C 10.36439,4.4476646 10.533752,5.0650755 10.243648,5.5675503 Z m 1.444708,-8.2302701 c 0.100867,0.5720447 -0.272923,1.1111485 -0.841489,1.2114021 L 7.8779895,-0.92386055 C 7.3072506,-0.8242779 6.7750336,-1.206559 6.6742813,-1.7779541 6.5734147,-2.3499969 6.9477978,-2.8720093 7.5187112,-2.9726767 l 2.9692198,-0.5255336 c 0.573072,-0.1000022 1.099676,0.2640976 1.200428,0.8354908 z M 7.5047534,-9.8961156 c 0.4449717,0.3733756 0.5051611,1.0266209 0.134056,1.4688867 l -1.935249,2.3124165 C 5.3303596,-5.6716638 4.6769322,-5.6224056 4.2324657,-5.9953572 3.7874954,-6.3687317 3.7387464,-7.0092652 4.1113837,-7.4533569 l 1.9367479,-2.31116 c 0.3747185,-0.4449701 1.0121591,-0.5045471 1.4566241,-0.1315968 z"
       id="path1003"
       sodipodi:nodetypes="cccscccc"
       inkscape:path-effect="#path-effect3"
       inkscape:original-d="m -0.34960938,-12.748047 c 0.58086932,0 1.04687501,0.461726 1.046875,1.039063 l 0.003906,3.0153679 c -0.001038,0.5793604 -0.46992988,1.0371094 -1.05013968,1.0371094 -0.58086752,0 -1.02993844,-0.4593419 -1.02993834,-1.0390625 l -0.00195,-3.0153688 c 0.00103,-0.581731 0.45104208,-1.037109 1.03124997,-1.037109 z" />
    <path
       style="fill:none;stroke:#ffffff;stroke-width:1.27;stroke-linecap:round;stroke-linejoin:round;stroke-dasharray:none;stroke-opacity:1"
       d="m -0.34190223,-12.113046 -0.007072,3.8100078 m -6.25372047,-1.9706948 2.0538964,3.2090057 m -6.3264027,1.7231624 3.4627672,1.5891673 m -4.3904962,4.869928 3.7722334,-0.53522066 m -1.060639,6.47052576 2.884043,-2.4896798 m 2.605964,6.0167773 1.0801888,-3.6536832 M 2.9240521,10.578994 1.8574344,6.9213264 M 8.4130442,7.0503178 5.5382636,4.5499486 M 11.122932,1.1142328 7.3527106,0.56501214 M 10.193344,-5.3445953 6.7247012,-3.7682938 M 5.9194191,-10.275534 3.853624,-7.0741753"
       id="path3"
       sodipodi:nodetypes="cc"
       inkscape:path-effect="#path-effect4"
       inkscape:original-d="m -0.34190223,-12.113046 -0.007072,3.8100078" />
  </g>
</svg>
